<svg width="512" height="512" viewBox="0 0 512 512" fill="none" xmlns="http://www.w3.org/2000/svg">
  <rect x="96" y="96" width="320" height="320" rx="92" fill="#020817"/>
  <rect x="96.5" y="96.5" width="319" height="319" rx="91.5" stroke="#1E293B"/>
  <path d="M156 285C156 214 210 160 283 160C320 160 354 174 379 198" stroke="#F8FAFC" stroke-width="28" stroke-linecap="round"/>
  <path d="M356 227C356 298 302 352 229 352C192 352 158 338 133 314" stroke="#CBD5E1" stroke-width="28" stroke-linecap="round"/>
  <path d="M178 196C202 177 233 166 266 166C346 166 412 232 412 312" stroke="#475569" stroke-width="16" stroke-linecap="round"/>
  <path d="M100 200C100 149 142 108 194 108H224" stroke="#1E293B" stroke-width="10" stroke-linecap="round"/>
</svg>
